# xmcd CD database file
#
# Track frame offsets:
#	150
#	13030
#	30170
#	47640
#	72025
#	95357
#	113702
#	132512
#	149605
#	175630
#	198217
#	215750
#	235537
#	250925
#	274677
#	289065
#
# Disc length: 4097 seconds
#
# Revision: 1
# Processed by: cddbd v1.5.1PL0 Copyright (c) Steve Scherf et al.
# Submitted via: CDex 1.51
#
DISCID=de0fff10
DTITLE=Earth, Wind and Fire - Best Selection
DYEAR=1900
DGENRE=Rhythmic Soul
TTITLE0=Shinning Star
TTITLE1=Fanatsy
TTITLE2=Serpentine Fire
TTITLE3=I'll Write A Song For You
TTITLE4=Be Ever Wonderful
TTITLE5=Got To Get You Into My Life
TTITLE6=Can't Hide Love
TTITLE7=Getaway
TTITLE8=That's The Way Of The World
TTITLE9=Reasons
TTITLE10=In The Marketplace (Interlude) Jupiter
TTITLE11=Love's Holiday
TTITLE12=Singasong
TTITLE13=imagination
TTITLE14=Spirit
TTITLE15=SATURDAY NITE
EXTD=
EXTT0=
EXTT1=
EXTT2=
EXTT3=
EXTT4=
EXTT5=
EXTT6=
EXTT7=
EXTT8=
EXTT9=
EXTT10=
EXTT11=
EXTT12=
EXTT13=
EXTT14=
EXTT15=
PLAYORDER=
